<svg xmlns="http://www.w3.org/2000/svg" viewBox="0 0 64 64">
  <rect width="64" height="64" fill="white"/>
  <path d="M 35.31 44.37 Q 39.77 43.86 41.25 41.54 Q 43.18 38.59 43.18 32.84 Q 43.18 27.08 41.28 24.15 Q 39.77 21.79 35.31 21.30 L 35.31 44.37 Z M 35.31 57.00 L 30.64 57.00 L 30.64 46.91 Q 23.90 46.38 20.90 43.12 Q 17.34 39.24 17.34 32.84 Q 17.34 26.43 20.90 22.57 Q 23.88 19.31 30.64 18.79 L 30.64 7.00 L 35.31 7.00 L 35.31 18.79 Q 42.06 19.31 45.07 22.57 Q 48.60 26.43 48.60 32.84 Q 48.60 39.24 45.04 43.12 Q 42.04 46.38 35.31 46.91 L 35.31 57.00 Z M 30.64 44.37 L 30.64 21.30 Q 26.17 21.79 24.68 24.15 Q 22.77 27.08 22.77 32.84 Q 22.77 38.59 24.68 41.54 Q 26.17 43.86 30.64 44.37 Z" fill="black"/>
</svg>