<svg xmlns="http://www.w3.org/2000/svg" viewBox="0 0 100 100">
<rect width="100" height="100" fill="#f1f5fb"/>
<path fill="#111827" transform="translate(7.3 89.7) scale(120)"
d="M0.712031,-0.000000 L0.505000,-0.000000 L0.310000,-0.270937
L0.235937,-0.270937 L0.235937,-0.000000 L0.070000,-0.000000
L0.070000,-0.662031 L0.390000,-0.662031 Q0.495000,-0.662031
0.561406,-0.614531 Q0.627969,-0.567031 0.627969,-0.465938
Q0.627969,-0.399062 0.593906,-0.351562 Q0.560000,-0.304063
0.497031,-0.285000 L0.712031,-0.000000 Z
M0.490938,-0.604063 L0.490938,-0.320937 Q0.534062,-0.339062
0.559063,-0.377969 Q0.584063,-0.417031 0.584063,-0.464062
Q0.584063,-0.562031 0.490938,-0.604063 Z
M0.447031,-0.320000 L0.447031,-0.610000 Q0.442969,-0.610000
0.424375,-0.613906 Q0.405938,-0.617969 0.397031,-0.617969
L0.235937,-0.617969 L0.235937,-0.315000 L0.392031,-0.315000
Q0.402031,-0.315000 0.447031,-0.320000 Z
M0.625938,-0.044062 L0.450937,-0.275000 Q0.427969,-0.270937
0.362969,-0.270937 L0.527969,-0.044062 L0.625938,-0.044062 Z
M0.192031,-0.044062 L0.192031,-0.617969 L0.114062,-0.617969
L0.114062,-0.044062 L0.192031,-0.044062 Z"/>
</svg>
